<?xml version="1.0" encoding="UTF-8"?>
<svg id="Layer_2" data-name="Layer 2" xmlns="http://www.w3.org/2000/svg" width="125.77" height="125.77" viewBox="0 0 125.77 125.77">
  <defs>
    <style>
      .cls-1 {
        stroke: #9b72f2;
      }

      .cls-1, .cls-2 {
        fill: none;
        stroke-linejoin: round;
        stroke-width: 3px;
      }

      .cls-2 {
        stroke: #6929f2;
      }
    </style>
  </defs>
  <g id="Layer_1-2" data-name="Layer 1">
    <g>
      <path class="cls-1" d="M118.26,7.51c-14.09-3.04-28.46-5.07-42.88-6.01h0c.94,14.42,2.97,28.79,6.01,42.88,14.09,3.04,28.46,5.07,42.88,6.01h0c-.94-14.42-2.97-28.79-6.01-42.88Z"/>
      <path class="cls-1" d="M44.38,81.39c-14.09-3.04-28.46-5.07-42.88-6.01h0c.94,14.42,2.97,28.79,6.01,42.88,14.09,3.04,28.46,5.07,42.88,6.01h0c-.94-14.42-2.97-28.79-6.01-42.88Z"/>
      <path class="cls-2" d="M81.39,81.39c-3.04,14.09-5.07,28.46-6.01,42.88h0c14.42-.94,28.79-2.97,42.88-6.01,3.04-14.09,5.07-28.46,6.01-42.88h0c-14.42.94-28.79,2.97-42.88,6.01Z"/>
      <path class="cls-2" d="M7.51,7.51c-3.04,14.09-5.07,28.46-6.01,42.88h0c14.42-.94,28.79-2.97,42.88-6.01,3.04-14.09,5.07-28.46,6.01-42.88h0c-14.42.94-28.79,2.97-42.88,6.01Z"/>
    </g>
  </g>
</svg>